<svg width="315" height="315" viewBox="0 0 315 315" fill="none" xmlns="http://www.w3.org/2000/svg">
<g filter="url(#filter0_d_2_47)">
<path d="M4 12C4 5.37258 9.37258 0 16 0H57C63.6274 0 69 5.37258 69 12V72C69 78.6274 63.6274 84 57 84H16C9.37258 84 4 78.6274 4 72V12Z" fill="white"/>
<path d="M4.5 12C4.5 5.64872 9.64873 0.5 16 0.5H57C63.3513 0.5 68.5 5.64873 68.5 12V72C68.5 78.3513 63.3513 83.5 57 83.5H16C9.64873 83.5 4.5 78.3513 4.5 72V12Z" stroke="#9F9F9F"/>
</g>
<g filter="url(#filter1_d_2_47)">
<path d="M86 12C86 5.37258 91.3726 0 98 0H139C145.627 0 151 5.37258 151 12V72C151 78.6274 145.627 84 139 84H98C91.3726 84 86 78.6274 86 72V12Z" fill="white"/>
<path d="M86.5 12C86.5 5.64872 91.6487 0.5 98 0.5H139C145.351 0.5 150.5 5.64873 150.5 12V72C150.5 78.3513 145.351 83.5 139 83.5H98C91.6487 83.5 86.5 78.3513 86.5 72V12Z" stroke="#9F9F9F"/>
</g>
<g filter="url(#filter2_d_2_47)">
<path d="M168 12C168 5.37258 173.373 0 180 0H221C227.627 0 233 5.37258 233 12V72C233 78.6274 227.627 84 221 84H180C173.373 84 168 78.6274 168 72V12Z" fill="white"/>
<path d="M168.5 12C168.5 5.64872 173.649 0.5 180 0.5H221C227.351 0.5 232.5 5.64873 232.5 12V72C232.5 78.3513 227.351 83.5 221 83.5H180C173.649 83.5 168.5 78.3513 168.5 72V12Z" stroke="#9F9F9F"/>
</g>
<g filter="url(#filter3_d_2_47)">
<path d="M250 12C250 5.37258 255.373 0 262 0H303C309.627 0 315 5.37258 315 12V72C315 78.6274 309.627 84 303 84H262C255.373 84 250 78.6274 250 72V12Z" fill="white"/>
<path d="M250.5 12C250.5 5.64872 255.649 0.5 262 0.5H303C309.351 0.5 314.5 5.64873 314.5 12V72C314.5 78.3513 309.351 83.5 303 83.5H262C255.649 83.5 250.5 78.3513 250.5 72V12Z" stroke="#9F9F9F"/>
</g>
<g filter="url(#filter4_d_2_47)">
<path d="M4 123C4 116.373 9.37258 111 16 111H57C63.6274 111 69 116.373 69 123V183C69 189.627 63.6274 195 57 195H16C9.37258 195 4 189.627 4 183V123Z" fill="white"/>
<path d="M4.5 123C4.5 116.649 9.64873 111.5 16 111.5H57C63.3513 111.5 68.5 116.649 68.5 123V183C68.5 189.351 63.3513 194.5 57 194.5H16C9.64873 194.5 4.5 189.351 4.5 183V123Z" stroke="#9F9F9F"/>
</g>
<g filter="url(#filter5_d_2_47)">
<path d="M86 123C86 116.373 91.3726 111 98 111H139C145.627 111 151 116.373 151 123V183C151 189.627 145.627 195 139 195H98C91.3726 195 86 189.627 86 183V123Z" fill="white"/>
<path d="M86.5 123C86.5 116.649 91.6487 111.5 98 111.5H139C145.351 111.5 150.5 116.649 150.5 123V183C150.5 189.351 145.351 194.5 139 194.5H98C91.6487 194.5 86.5 189.351 86.5 183V123Z" stroke="#9F9F9F"/>
</g>
<g filter="url(#filter6_d_2_47)">
<path d="M168 123C168 116.373 173.373 111 180 111H221C227.627 111 233 116.373 233 123V183C233 189.627 227.627 195 221 195H180C173.373 195 168 189.627 168 183V123Z" fill="white"/>
<path d="M168.5 123C168.5 116.649 173.649 111.5 180 111.5H221C227.351 111.5 232.5 116.649 232.5 123V183C232.5 189.351 227.351 194.5 221 194.5H180C173.649 194.5 168.5 189.351 168.5 183V123Z" stroke="#9F9F9F"/>
</g>
<g filter="url(#filter7_d_2_47)">
<path d="M250 123C250 116.373 255.373 111 262 111H303C309.627 111 315 116.373 315 123V183C315 189.627 309.627 195 303 195H262C255.373 195 250 189.627 250 183V123Z" fill="white"/>
<path d="M250.5 123C250.5 116.649 255.649 111.5 262 111.5H303C309.351 111.5 314.5 116.649 314.5 123V183C314.5 189.351 309.351 194.5 303 194.5H262C255.649 194.5 250.5 189.351 250.5 183V123Z" stroke="#9F9F9F"/>
</g>
<g filter="url(#filter8_d_2_47)">
<path d="M4 234C4 227.373 9.37258 222 16 222H57C63.6274 222 69 227.373 69 234V294C69 300.627 63.6274 306 57 306H16C9.37258 306 4 300.627 4 294V234Z" fill="white"/>
<path d="M4.5 234C4.5 227.649 9.64873 222.5 16 222.5H57C63.3513 222.5 68.5 227.649 68.5 234V294C68.5 300.351 63.3513 305.5 57 305.5H16C9.64873 305.5 4.5 300.351 4.5 294V234Z" stroke="#9F9F9F"/>
</g>
<g filter="url(#filter9_d_2_47)">
<path d="M86 234C86 227.373 91.3726 222 98 222H139C145.627 222 151 227.373 151 234V294C151 300.627 145.627 306 139 306H98C91.3726 306 86 300.627 86 294V234Z" fill="white"/>
<path d="M86.5 234C86.5 227.649 91.6487 222.5 98 222.5H139C145.351 222.5 150.5 227.649 150.5 234V294C150.5 300.351 145.351 305.5 139 305.5H98C91.6487 305.5 86.5 300.351 86.5 294V234Z" stroke="#9F9F9F"/>
</g>
<g filter="url(#filter10_d_2_47)">
<path d="M168 234C168 227.373 173.373 222 180 222H221C227.627 222 233 227.373 233 234V294C233 300.627 227.627 306 221 306H180C173.373 306 168 300.627 168 294V234Z" fill="white"/>
<path d="M168.5 234C168.5 227.649 173.649 222.5 180 222.5H221C227.351 222.5 232.5 227.649 232.5 234V294C232.5 300.351 227.351 305.5 221 305.5H180C173.649 305.5 168.5 300.351 168.5 294V234Z" stroke="#9F9F9F"/>
</g>
<g filter="url(#filter11_d_2_47)">
<path d="M250 234C250 227.373 255.373 222 262 222H303C309.627 222 315 227.373 315 234V294C315 300.627 309.627 306 303 306H262C255.373 306 250 300.627 250 294V234Z" fill="white"/>
<path d="M250.5 234C250.5 227.649 255.649 222.5 262 222.5H303C309.351 222.5 314.5 227.649 314.5 234V294C314.5 300.351 309.351 305.5 303 305.5H262C255.649 305.5 250.5 300.351 250.5 294V234Z" stroke="#9F9F9F"/>
</g>
<defs>
<filter id="filter0_d_2_47" x="0" y="0" width="69" height="93" filterUnits="userSpaceOnUse" color-interpolation-filters="sRGB">
<feFlood flood-opacity="0" result="BackgroundImageFix"/>
<feColorMatrix in="SourceAlpha" type="matrix" values="0 0 0 0 0 0 0 0 0 0 0 0 0 0 0 0 0 0 127 0" result="hardAlpha"/>
<feOffset dx="-4" dy="9"/>
<feComposite in2="hardAlpha" operator="out"/>
<feColorMatrix type="matrix" values="0 0 0 0 0.483333 0 0 0 0 0.535 0 0 0 0 1 0 0 0 0.45 0"/>
<feBlend mode="normal" in2="BackgroundImageFix" result="effect1_dropShadow_2_47"/>
<feBlend mode="normal" in="SourceGraphic" in2="effect1_dropShadow_2_47" result="shape"/>
</filter>
<filter id="filter1_d_2_47" x="82" y="0" width="69" height="93" filterUnits="userSpaceOnUse" color-interpolation-filters="sRGB">
<feFlood flood-opacity="0" result="BackgroundImageFix"/>
<feColorMatrix in="SourceAlpha" type="matrix" values="0 0 0 0 0 0 0 0 0 0 0 0 0 0 0 0 0 0 127 0" result="hardAlpha"/>
<feOffset dx="-4" dy="9"/>
<feComposite in2="hardAlpha" operator="out"/>
<feColorMatrix type="matrix" values="0 0 0 0 0.483333 0 0 0 0 0.535 0 0 0 0 1 0 0 0 0.45 0"/>
<feBlend mode="normal" in2="BackgroundImageFix" result="effect1_dropShadow_2_47"/>
<feBlend mode="normal" in="SourceGraphic" in2="effect1_dropShadow_2_47" result="shape"/>
</filter>
<filter id="filter2_d_2_47" x="164" y="0" width="69" height="93" filterUnits="userSpaceOnUse" color-interpolation-filters="sRGB">
<feFlood flood-opacity="0" result="BackgroundImageFix"/>
<feColorMatrix in="SourceAlpha" type="matrix" values="0 0 0 0 0 0 0 0 0 0 0 0 0 0 0 0 0 0 127 0" result="hardAlpha"/>
<feOffset dx="-4" dy="9"/>
<feComposite in2="hardAlpha" operator="out"/>
<feColorMatrix type="matrix" values="0 0 0 0 0.483333 0 0 0 0 0.535 0 0 0 0 1 0 0 0 0.45 0"/>
<feBlend mode="normal" in2="BackgroundImageFix" result="effect1_dropShadow_2_47"/>
<feBlend mode="normal" in="SourceGraphic" in2="effect1_dropShadow_2_47" result="shape"/>
</filter>
<filter id="filter3_d_2_47" x="246" y="0" width="69" height="93" filterUnits="userSpaceOnUse" color-interpolation-filters="sRGB">
<feFlood flood-opacity="0" result="BackgroundImageFix"/>
<feColorMatrix in="SourceAlpha" type="matrix" values="0 0 0 0 0 0 0 0 0 0 0 0 0 0 0 0 0 0 127 0" result="hardAlpha"/>
<feOffset dx="-4" dy="9"/>
<feComposite in2="hardAlpha" operator="out"/>
<feColorMatrix type="matrix" values="0 0 0 0 0.483333 0 0 0 0 0.535 0 0 0 0 1 0 0 0 0.45 0"/>
<feBlend mode="normal" in2="BackgroundImageFix" result="effect1_dropShadow_2_47"/>
<feBlend mode="normal" in="SourceGraphic" in2="effect1_dropShadow_2_47" result="shape"/>
</filter>
<filter id="filter4_d_2_47" x="0" y="111" width="69" height="93" filterUnits="userSpaceOnUse" color-interpolation-filters="sRGB">
<feFlood flood-opacity="0" result="BackgroundImageFix"/>
<feColorMatrix in="SourceAlpha" type="matrix" values="0 0 0 0 0 0 0 0 0 0 0 0 0 0 0 0 0 0 127 0" result="hardAlpha"/>
<feOffset dx="-4" dy="9"/>
<feComposite in2="hardAlpha" operator="out"/>
<feColorMatrix type="matrix" values="0 0 0 0 0.483333 0 0 0 0 0.535 0 0 0 0 1 0 0 0 0.45 0"/>
<feBlend mode="normal" in2="BackgroundImageFix" result="effect1_dropShadow_2_47"/>
<feBlend mode="normal" in="SourceGraphic" in2="effect1_dropShadow_2_47" result="shape"/>
</filter>
<filter id="filter5_d_2_47" x="82" y="111" width="69" height="93" filterUnits="userSpaceOnUse" color-interpolation-filters="sRGB">
<feFlood flood-opacity="0" result="BackgroundImageFix"/>
<feColorMatrix in="SourceAlpha" type="matrix" values="0 0 0 0 0 0 0 0 0 0 0 0 0 0 0 0 0 0 127 0" result="hardAlpha"/>
<feOffset dx="-4" dy="9"/>
<feComposite in2="hardAlpha" operator="out"/>
<feColorMatrix type="matrix" values="0 0 0 0 0.483333 0 0 0 0 0.535 0 0 0 0 1 0 0 0 0.45 0"/>
<feBlend mode="normal" in2="BackgroundImageFix" result="effect1_dropShadow_2_47"/>
<feBlend mode="normal" in="SourceGraphic" in2="effect1_dropShadow_2_47" result="shape"/>
</filter>
<filter id="filter6_d_2_47" x="164" y="111" width="69" height="93" filterUnits="userSpaceOnUse" color-interpolation-filters="sRGB">
<feFlood flood-opacity="0" result="BackgroundImageFix"/>
<feColorMatrix in="SourceAlpha" type="matrix" values="0 0 0 0 0 0 0 0 0 0 0 0 0 0 0 0 0 0 127 0" result="hardAlpha"/>
<feOffset dx="-4" dy="9"/>
<feComposite in2="hardAlpha" operator="out"/>
<feColorMatrix type="matrix" values="0 0 0 0 0.483333 0 0 0 0 0.535 0 0 0 0 1 0 0 0 0.45 0"/>
<feBlend mode="normal" in2="BackgroundImageFix" result="effect1_dropShadow_2_47"/>
<feBlend mode="normal" in="SourceGraphic" in2="effect1_dropShadow_2_47" result="shape"/>
</filter>
<filter id="filter7_d_2_47" x="246" y="111" width="69" height="93" filterUnits="userSpaceOnUse" color-interpolation-filters="sRGB">
<feFlood flood-opacity="0" result="BackgroundImageFix"/>
<feColorMatrix in="SourceAlpha" type="matrix" values="0 0 0 0 0 0 0 0 0 0 0 0 0 0 0 0 0 0 127 0" result="hardAlpha"/>
<feOffset dx="-4" dy="9"/>
<feComposite in2="hardAlpha" operator="out"/>
<feColorMatrix type="matrix" values="0 0 0 0 0.483333 0 0 0 0 0.535 0 0 0 0 1 0 0 0 0.45 0"/>
<feBlend mode="normal" in2="BackgroundImageFix" result="effect1_dropShadow_2_47"/>
<feBlend mode="normal" in="SourceGraphic" in2="effect1_dropShadow_2_47" result="shape"/>
</filter>
<filter id="filter8_d_2_47" x="0" y="222" width="69" height="93" filterUnits="userSpaceOnUse" color-interpolation-filters="sRGB">
<feFlood flood-opacity="0" result="BackgroundImageFix"/>
<feColorMatrix in="SourceAlpha" type="matrix" values="0 0 0 0 0 0 0 0 0 0 0 0 0 0 0 0 0 0 127 0" result="hardAlpha"/>
<feOffset dx="-4" dy="9"/>
<feComposite in2="hardAlpha" operator="out"/>
<feColorMatrix type="matrix" values="0 0 0 0 0.483333 0 0 0 0 0.535 0 0 0 0 1 0 0 0 0.45 0"/>
<feBlend mode="normal" in2="BackgroundImageFix" result="effect1_dropShadow_2_47"/>
<feBlend mode="normal" in="SourceGraphic" in2="effect1_dropShadow_2_47" result="shape"/>
</filter>
<filter id="filter9_d_2_47" x="82" y="222" width="69" height="93" filterUnits="userSpaceOnUse" color-interpolation-filters="sRGB">
<feFlood flood-opacity="0" result="BackgroundImageFix"/>
<feColorMatrix in="SourceAlpha" type="matrix" values="0 0 0 0 0 0 0 0 0 0 0 0 0 0 0 0 0 0 127 0" result="hardAlpha"/>
<feOffset dx="-4" dy="9"/>
<feComposite in2="hardAlpha" operator="out"/>
<feColorMatrix type="matrix" values="0 0 0 0 0.483333 0 0 0 0 0.535 0 0 0 0 1 0 0 0 0.45 0"/>
<feBlend mode="normal" in2="BackgroundImageFix" result="effect1_dropShadow_2_47"/>
<feBlend mode="normal" in="SourceGraphic" in2="effect1_dropShadow_2_47" result="shape"/>
</filter>
<filter id="filter10_d_2_47" x="164" y="222" width="69" height="93" filterUnits="userSpaceOnUse" color-interpolation-filters="sRGB">
<feFlood flood-opacity="0" result="BackgroundImageFix"/>
<feColorMatrix in="SourceAlpha" type="matrix" values="0 0 0 0 0 0 0 0 0 0 0 0 0 0 0 0 0 0 127 0" result="hardAlpha"/>
<feOffset dx="-4" dy="9"/>
<feComposite in2="hardAlpha" operator="out"/>
<feColorMatrix type="matrix" values="0 0 0 0 0.483333 0 0 0 0 0.535 0 0 0 0 1 0 0 0 0.45 0"/>
<feBlend mode="normal" in2="BackgroundImageFix" result="effect1_dropShadow_2_47"/>
<feBlend mode="normal" in="SourceGraphic" in2="effect1_dropShadow_2_47" result="shape"/>
</filter>
<filter id="filter11_d_2_47" x="246" y="222" width="69" height="93" filterUnits="userSpaceOnUse" color-interpolation-filters="sRGB">
<feFlood flood-opacity="0" result="BackgroundImageFix"/>
<feColorMatrix in="SourceAlpha" type="matrix" values="0 0 0 0 0 0 0 0 0 0 0 0 0 0 0 0 0 0 127 0" result="hardAlpha"/>
<feOffset dx="-4" dy="9"/>
<feComposite in2="hardAlpha" operator="out"/>
<feColorMatrix type="matrix" values="0 0 0 0 0.483333 0 0 0 0 0.535 0 0 0 0 1 0 0 0 0.45 0"/>
<feBlend mode="normal" in2="BackgroundImageFix" result="effect1_dropShadow_2_47"/>
<feBlend mode="normal" in="SourceGraphic" in2="effect1_dropShadow_2_47" result="shape"/>
</filter>
</defs>
</svg>
