<svg width="76" height="29" viewBox="0 0 76 29" fill="none" xmlns="http://www.w3.org/2000/svg">
<g filter="url(#filter0_d_63_244)">
<mask id="path-1-outside-1_63_244" maskUnits="userSpaceOnUse" x="3.75757" y="-0.039978" width="68" height="21" fill="black">
<rect fill="white" x="3.75757" y="-0.039978" width="68" height="21"/>
<path d="M11.9336 16.28C11.0376 16.28 10.2056 16.1467 9.43757 15.88C8.66957 15.6134 7.97624 15.2614 7.35757 14.824C6.74957 14.376 6.21624 13.896 5.75757 13.384L7.35757 10.84C7.49624 11.2027 7.72557 11.5494 8.04557 11.88C8.37624 12.2107 8.76024 12.504 9.19757 12.76C9.6349 13.016 10.0936 13.2187 10.5736 13.368C11.0642 13.5174 11.5442 13.592 12.0136 13.592C12.7176 13.592 13.2776 13.48 13.6936 13.256C14.1096 13.0214 14.3176 12.712 14.3176 12.328C14.3176 12.0294 14.2216 11.784 14.0296 11.592C13.8482 11.3894 13.6349 11.2294 13.3896 11.112C13.1549 10.984 12.9522 10.872 12.7816 10.776C12.6536 10.712 12.4189 10.616 12.0776 10.488C11.7469 10.3494 11.3736 10.2 10.9576 10.04C10.5416 9.88002 10.1469 9.73069 9.77357 9.59202C9.40023 9.44269 9.1069 9.32002 8.89357 9.22402C7.30424 8.50936 6.50957 7.40536 6.50957 5.91202C6.50957 5.43202 6.60024 4.96269 6.78157 4.50402C6.97357 4.03469 7.26157 3.60802 7.64557 3.22402C8.02957 2.84002 8.52024 2.53602 9.11757 2.31202C9.7149 2.08802 10.4296 1.97602 11.2616 1.97602C12.1682 1.97602 12.9736 2.07736 13.6776 2.28002C14.3816 2.47202 15.0002 2.71736 15.5336 3.01602C16.0776 3.31469 16.5416 3.62936 16.9256 3.96002L15.4536 6.42402C14.2696 5.25069 12.9309 4.66402 11.4376 4.66402C10.8082 4.66402 10.3282 4.73336 9.99757 4.87202C9.67757 5.00002 9.4589 5.14936 9.34157 5.32002C9.2349 5.48002 9.18157 5.61336 9.18157 5.72002C9.18157 5.90136 9.24557 6.08269 9.37357 6.26402C9.51223 6.44536 9.81624 6.63736 10.2856 6.84002C10.4776 6.92536 10.7336 7.03202 11.0536 7.16002C11.3842 7.27736 11.7469 7.41069 12.1416 7.56002C12.5469 7.70936 12.9416 7.86936 13.3256 8.04002C13.7202 8.20002 14.0776 8.36536 14.3976 8.53602C14.7816 8.74936 15.1762 9.01069 15.5816 9.32002C15.9869 9.62936 16.3282 10.0134 16.6056 10.472C16.8936 10.92 17.0376 11.4694 17.0376 12.12C17.0376 12.5147 16.9629 12.952 16.8136 13.432C16.6642 13.9014 16.4029 14.3547 16.0296 14.792C15.6562 15.2294 15.1389 15.5867 14.4776 15.864C13.8162 16.1414 12.9682 16.28 11.9336 16.28Z"/>
<path d="M18.4466 4.66402C18.4466 4.56802 18.4412 4.47202 18.4306 4.37602C18.4306 4.26936 18.4306 4.15202 18.4306 4.02402C18.4306 3.68269 18.4412 3.32002 18.4626 2.93602C18.4839 2.55202 18.5052 2.22669 18.5266 1.96002L21.3746 2.00802C21.3426 2.37069 21.3052 2.78136 21.2626 3.24002C21.2306 3.69869 21.2092 4.17336 21.1986 4.66402H18.4466ZM18.3826 16.12C18.3506 15.4587 18.3292 14.7547 18.3186 14.008C18.3079 13.2507 18.3026 12.4934 18.3026 11.736C18.3026 10.744 18.3132 9.77869 18.3346 8.84002C18.3559 7.90136 18.3826 7.04802 18.4146 6.28002L21.1666 6.26402C21.1239 6.75469 21.0972 7.36269 21.0866 8.08802C21.0759 8.80269 21.0706 9.55469 21.0706 10.344C21.0706 11.1227 21.0759 11.8907 21.0866 12.648C21.0972 13.4054 21.1079 14.0934 21.1186 14.712C21.1399 15.32 21.1559 15.7894 21.1666 16.12H18.3826Z"/>
<path d="M26.4253 15.08C25.7533 15.08 25.1827 14.9787 24.7133 14.776C24.244 14.5734 23.8547 14.312 23.5453 13.992C23.2467 13.6614 23.012 13.3094 22.8413 12.936C22.6707 12.552 22.5533 12.184 22.4893 11.832C22.4253 11.4694 22.3933 11.1547 22.3933 10.888C22.3933 10.376 22.4627 9.84802 22.6013 9.30402C22.7507 8.76002 22.996 8.25336 23.3373 7.78402C23.6893 7.31469 24.164 6.93602 24.7613 6.64802C25.3693 6.36002 26.132 6.21602 27.0493 6.21602C27.3267 6.21602 27.5827 6.23736 27.8173 6.28002C28.052 6.32269 28.2707 6.38136 28.4733 6.45602V5.92802H31.2413C31.2307 6.56802 31.22 7.29336 31.2093 8.10402C31.1987 8.90402 31.1933 9.81069 31.1933 10.824C31.1933 11.3467 31.1933 11.896 31.1933 12.472C31.204 13.0374 31.2093 13.656 31.2093 14.328C31.2093 15.2454 31.0867 15.9974 30.8413 16.584C30.596 17.1707 30.2813 17.624 29.8973 17.944C29.5133 18.264 29.1133 18.4934 28.6973 18.632C28.292 18.7814 27.9133 18.8667 27.5613 18.888C27.22 18.92 26.964 18.936 26.7933 18.936C26.3773 18.936 25.9187 18.888 25.4173 18.792C24.916 18.7067 24.4147 18.5627 23.9133 18.36C23.412 18.168 22.9533 17.9174 22.5373 17.608L23.7053 15.176C23.972 15.4 24.2387 15.6027 24.5053 15.784C24.772 15.976 25.0813 16.1254 25.4333 16.232C25.7853 16.3494 26.2227 16.408 26.7453 16.408C27.2787 16.408 27.6733 16.312 27.9293 16.12C28.1853 15.9387 28.3507 15.6934 28.4253 15.384C28.5107 15.0854 28.5587 14.7547 28.5693 14.392C28.2067 14.6587 27.8387 14.84 27.4653 14.936C27.092 15.032 26.7453 15.08 26.4253 15.08ZM24.7933 10.664C24.7933 11.272 24.9587 11.752 25.2893 12.104C25.6307 12.456 26.0947 12.632 26.6813 12.632C27.5027 12.632 28.116 12.1574 28.5213 11.208C28.5213 10.8667 28.516 10.52 28.5053 10.168C28.5053 9.80536 28.5 9.45336 28.4893 9.11202C28.0627 8.83469 27.572 8.69602 27.0173 8.69602C26.3347 8.69602 25.7907 8.87736 25.3853 9.24002C24.9907 9.59202 24.7933 10.0667 24.7933 10.664Z"/>
<path d="M32.7476 16.152C32.7156 15.2134 32.6889 14.344 32.6676 13.544C32.6569 12.744 32.6516 11.9547 32.6516 11.176C32.6516 10.3974 32.6569 9.61869 32.6676 8.84002C32.6889 8.05069 32.7209 7.20802 32.7636 6.31202H35.4676C35.4249 6.79202 35.3876 7.27736 35.3556 7.76802C35.7182 7.30936 36.1502 6.93069 36.6516 6.63202C37.1529 6.32269 37.7449 6.16802 38.4276 6.16802C39.0996 6.16802 39.6489 6.28002 40.0756 6.50402C40.5129 6.72802 40.8542 7.03736 41.0996 7.43202C41.3556 7.82669 41.5369 8.28002 41.6436 8.79202C41.7609 9.29336 41.8356 9.83736 41.8676 10.424C41.8996 11 41.9156 11.5814 41.9156 12.168C41.9156 12.808 41.9049 13.4214 41.8836 14.008C41.8622 14.5947 41.8409 15.0854 41.8196 15.48C41.7982 15.8747 41.7822 16.1094 41.7716 16.184H39.0836C39.1049 15.7467 39.1262 15.2827 39.1476 14.792C39.1689 14.2907 39.1902 13.8 39.2116 13.32C39.2329 12.8294 39.2436 12.3867 39.2436 11.992C39.2436 9.72002 38.8756 8.58402 38.1396 8.58402C37.5316 8.58402 36.9769 8.85069 36.4756 9.38402C35.9849 9.90669 35.5742 10.568 35.2436 11.368C35.2436 11.4747 35.2436 11.5814 35.2436 11.688C35.2436 12.2 35.2436 12.7334 35.2436 13.288C35.2542 13.832 35.2649 14.3547 35.2756 14.856C35.2969 15.3467 35.3129 15.7734 35.3236 16.136L32.7476 16.152Z"/>
<path d="M52.9752 16.248C51.9512 16.248 51.1032 16.0827 50.4312 15.752C49.7592 15.432 49.2205 14.9894 48.8152 14.424C48.4205 13.848 48.1219 13.1867 47.9192 12.44C47.7272 11.6934 47.5992 10.8934 47.5352 10.04C47.4819 9.18669 47.4552 8.32269 47.4552 7.44802C47.4552 6.45602 47.4872 5.49069 47.5512 4.55202C47.6152 3.60269 47.6845 2.80802 47.7592 2.16802L50.7032 2.34402C50.5965 3.12269 50.5112 3.82136 50.4472 4.44002C50.3939 5.04802 50.3565 5.62402 50.3352 6.16802C50.3139 6.71202 50.3032 7.27202 50.3032 7.84802C50.3032 8.29602 50.3085 8.78136 50.3192 9.30402C50.3405 9.81602 50.3885 10.328 50.4632 10.84C50.5485 11.3414 50.6765 11.8 50.8472 12.216C51.0285 12.6214 51.2792 12.952 51.5992 13.208C51.9299 13.4534 52.3512 13.576 52.8632 13.576C53.4179 13.576 53.8659 13.4534 54.2072 13.208C54.5592 12.952 54.8312 12.616 55.0232 12.2C55.2152 11.7734 55.3539 11.304 55.4392 10.792C55.5245 10.2694 55.5725 9.74136 55.5832 9.20802C55.6045 8.66402 55.6152 8.15202 55.6152 7.67202C55.6152 6.76536 55.5885 5.88536 55.5352 5.03202C55.4819 4.17869 55.4125 3.27202 55.3272 2.31202L58.2712 2.08802C58.3565 3.11202 58.4205 4.05069 58.4632 4.90402C58.5059 5.74669 58.5272 6.52536 58.5272 7.24002C58.5272 8.21069 58.4899 9.14402 58.4152 10.04C58.3512 10.936 58.2125 11.7627 57.9992 12.52C57.7859 13.2667 57.4765 13.9227 57.0712 14.488C56.6659 15.0427 56.1272 15.4747 55.4552 15.784C54.7939 16.0934 53.9672 16.248 52.9752 16.248Z"/>
<path d="M60.5132 19.544C60.4385 18.6907 60.3852 17.832 60.3532 16.968C60.3212 16.104 60.3052 15.1067 60.3052 13.976C60.3052 12.6 60.3265 11.2294 60.3692 9.86402C60.4119 8.49869 60.4759 7.25069 60.5612 6.12002L63.3132 6.20002C63.2812 6.44536 63.2545 6.70669 63.2332 6.98402C63.6172 6.72802 64.0279 6.54136 64.4652 6.42402C64.9132 6.30669 65.3665 6.24802 65.8252 6.24802C66.4119 6.24802 66.9825 6.34402 67.5372 6.53602C68.0919 6.71736 68.5932 7.01069 69.0412 7.41602C69.4892 7.81069 69.8412 8.32269 70.0972 8.95202C70.3639 9.58136 70.4972 10.3387 70.4972 11.224C70.4972 12.0987 70.3639 12.8614 70.0972 13.512C69.8305 14.1627 69.4732 14.696 69.0252 15.112C68.5772 15.5387 68.0759 15.8534 67.5212 16.056C66.9665 16.2694 66.3959 16.376 65.8092 16.376C64.7319 16.376 63.7825 16.056 62.9612 15.416C62.9825 16.0987 63.0145 16.7547 63.0572 17.384C63.0999 18.024 63.1532 18.6747 63.2172 19.336L60.5132 19.544ZM65.3932 8.90402C64.3372 8.90402 63.5425 9.42136 63.0092 10.456C62.9772 11.096 62.9559 11.7467 62.9452 12.408C63.2012 12.7494 63.5319 13.048 63.9372 13.304C64.3425 13.5494 64.8599 13.672 65.4892 13.672C66.9932 13.672 67.7452 12.8134 67.7452 11.096C67.7452 10.6374 67.6599 10.264 67.4892 9.97602C67.3185 9.68802 67.1052 9.46936 66.8492 9.32002C66.5932 9.16002 66.3319 9.05336 66.0652 9.00002C65.7985 8.93602 65.5745 8.90402 65.3932 8.90402Z"/>
</mask>
<path d="M11.9336 16.28C11.0376 16.28 10.2056 16.1467 9.43757 15.88C8.66957 15.6134 7.97624 15.2614 7.35757 14.824C6.74957 14.376 6.21624 13.896 5.75757 13.384L7.35757 10.84C7.49624 11.2027 7.72557 11.5494 8.04557 11.88C8.37624 12.2107 8.76024 12.504 9.19757 12.76C9.6349 13.016 10.0936 13.2187 10.5736 13.368C11.0642 13.5174 11.5442 13.592 12.0136 13.592C12.7176 13.592 13.2776 13.48 13.6936 13.256C14.1096 13.0214 14.3176 12.712 14.3176 12.328C14.3176 12.0294 14.2216 11.784 14.0296 11.592C13.8482 11.3894 13.6349 11.2294 13.3896 11.112C13.1549 10.984 12.9522 10.872 12.7816 10.776C12.6536 10.712 12.4189 10.616 12.0776 10.488C11.7469 10.3494 11.3736 10.2 10.9576 10.04C10.5416 9.88002 10.1469 9.73069 9.77357 9.59202C9.40023 9.44269 9.1069 9.32002 8.89357 9.22402C7.30424 8.50936 6.50957 7.40536 6.50957 5.91202C6.50957 5.43202 6.60024 4.96269 6.78157 4.50402C6.97357 4.03469 7.26157 3.60802 7.64557 3.22402C8.02957 2.84002 8.52024 2.53602 9.11757 2.31202C9.7149 2.08802 10.4296 1.97602 11.2616 1.97602C12.1682 1.97602 12.9736 2.07736 13.6776 2.28002C14.3816 2.47202 15.0002 2.71736 15.5336 3.01602C16.0776 3.31469 16.5416 3.62936 16.9256 3.96002L15.4536 6.42402C14.2696 5.25069 12.9309 4.66402 11.4376 4.66402C10.8082 4.66402 10.3282 4.73336 9.99757 4.87202C9.67757 5.00002 9.4589 5.14936 9.34157 5.32002C9.2349 5.48002 9.18157 5.61336 9.18157 5.72002C9.18157 5.90136 9.24557 6.08269 9.37357 6.26402C9.51223 6.44536 9.81624 6.63736 10.2856 6.84002C10.4776 6.92536 10.7336 7.03202 11.0536 7.16002C11.3842 7.27736 11.7469 7.41069 12.1416 7.56002C12.5469 7.70936 12.9416 7.86936 13.3256 8.04002C13.7202 8.20002 14.0776 8.36536 14.3976 8.53602C14.7816 8.74936 15.1762 9.01069 15.5816 9.32002C15.9869 9.62936 16.3282 10.0134 16.6056 10.472C16.8936 10.92 17.0376 11.4694 17.0376 12.12C17.0376 12.5147 16.9629 12.952 16.8136 13.432C16.6642 13.9014 16.4029 14.3547 16.0296 14.792C15.6562 15.2294 15.1389 15.5867 14.4776 15.864C13.8162 16.1414 12.9682 16.28 11.9336 16.28Z" fill="white"/>
<path d="M18.4466 4.66402C18.4466 4.56802 18.4412 4.47202 18.4306 4.37602C18.4306 4.26936 18.4306 4.15202 18.4306 4.02402C18.4306 3.68269 18.4412 3.32002 18.4626 2.93602C18.4839 2.55202 18.5052 2.22669 18.5266 1.96002L21.3746 2.00802C21.3426 2.37069 21.3052 2.78136 21.2626 3.24002C21.2306 3.69869 21.2092 4.17336 21.1986 4.66402H18.4466ZM18.3826 16.12C18.3506 15.4587 18.3292 14.7547 18.3186 14.008C18.3079 13.2507 18.3026 12.4934 18.3026 11.736C18.3026 10.744 18.3132 9.77869 18.3346 8.84002C18.3559 7.90136 18.3826 7.04802 18.4146 6.28002L21.1666 6.26402C21.1239 6.75469 21.0972 7.36269 21.0866 8.08802C21.0759 8.80269 21.0706 9.55469 21.0706 10.344C21.0706 11.1227 21.0759 11.8907 21.0866 12.648C21.0972 13.4054 21.1079 14.0934 21.1186 14.712C21.1399 15.32 21.1559 15.7894 21.1666 16.12H18.3826Z" fill="white"/>
<path d="M26.4253 15.08C25.7533 15.08 25.1827 14.9787 24.7133 14.776C24.244 14.5734 23.8547 14.312 23.5453 13.992C23.2467 13.6614 23.012 13.3094 22.8413 12.936C22.6707 12.552 22.5533 12.184 22.4893 11.832C22.4253 11.4694 22.3933 11.1547 22.3933 10.888C22.3933 10.376 22.4627 9.84802 22.6013 9.30402C22.7507 8.76002 22.996 8.25336 23.3373 7.78402C23.6893 7.31469 24.164 6.93602 24.7613 6.64802C25.3693 6.36002 26.132 6.21602 27.0493 6.21602C27.3267 6.21602 27.5827 6.23736 27.8173 6.28002C28.052 6.32269 28.2707 6.38136 28.4733 6.45602V5.92802H31.2413C31.2307 6.56802 31.22 7.29336 31.2093 8.10402C31.1987 8.90402 31.1933 9.81069 31.1933 10.824C31.1933 11.3467 31.1933 11.896 31.1933 12.472C31.204 13.0374 31.2093 13.656 31.2093 14.328C31.2093 15.2454 31.0867 15.9974 30.8413 16.584C30.596 17.1707 30.2813 17.624 29.8973 17.944C29.5133 18.264 29.1133 18.4934 28.6973 18.632C28.292 18.7814 27.9133 18.8667 27.5613 18.888C27.22 18.92 26.964 18.936 26.7933 18.936C26.3773 18.936 25.9187 18.888 25.4173 18.792C24.916 18.7067 24.4147 18.5627 23.9133 18.36C23.412 18.168 22.9533 17.9174 22.5373 17.608L23.7053 15.176C23.972 15.4 24.2387 15.6027 24.5053 15.784C24.772 15.976 25.0813 16.1254 25.4333 16.232C25.7853 16.3494 26.2227 16.408 26.7453 16.408C27.2787 16.408 27.6733 16.312 27.9293 16.12C28.1853 15.9387 28.3507 15.6934 28.4253 15.384C28.5107 15.0854 28.5587 14.7547 28.5693 14.392C28.2067 14.6587 27.8387 14.84 27.4653 14.936C27.092 15.032 26.7453 15.08 26.4253 15.08ZM24.7933 10.664C24.7933 11.272 24.9587 11.752 25.2893 12.104C25.6307 12.456 26.0947 12.632 26.6813 12.632C27.5027 12.632 28.116 12.1574 28.5213 11.208C28.5213 10.8667 28.516 10.52 28.5053 10.168C28.5053 9.80536 28.5 9.45336 28.4893 9.11202C28.0627 8.83469 27.572 8.69602 27.0173 8.69602C26.3347 8.69602 25.7907 8.87736 25.3853 9.24002C24.9907 9.59202 24.7933 10.0667 24.7933 10.664Z" fill="white"/>
<path d="M32.7476 16.152C32.7156 15.2134 32.6889 14.344 32.6676 13.544C32.6569 12.744 32.6516 11.9547 32.6516 11.176C32.6516 10.3974 32.6569 9.61869 32.6676 8.84002C32.6889 8.05069 32.7209 7.20802 32.7636 6.31202H35.4676C35.4249 6.79202 35.3876 7.27736 35.3556 7.76802C35.7182 7.30936 36.1502 6.93069 36.6516 6.63202C37.1529 6.32269 37.7449 6.16802 38.4276 6.16802C39.0996 6.16802 39.6489 6.28002 40.0756 6.50402C40.5129 6.72802 40.8542 7.03736 41.0996 7.43202C41.3556 7.82669 41.5369 8.28002 41.6436 8.79202C41.7609 9.29336 41.8356 9.83736 41.8676 10.424C41.8996 11 41.9156 11.5814 41.9156 12.168C41.9156 12.808 41.9049 13.4214 41.8836 14.008C41.8622 14.5947 41.8409 15.0854 41.8196 15.48C41.7982 15.8747 41.7822 16.1094 41.7716 16.184H39.0836C39.1049 15.7467 39.1262 15.2827 39.1476 14.792C39.1689 14.2907 39.1902 13.8 39.2116 13.32C39.2329 12.8294 39.2436 12.3867 39.2436 11.992C39.2436 9.72002 38.8756 8.58402 38.1396 8.58402C37.5316 8.58402 36.9769 8.85069 36.4756 9.38402C35.9849 9.90669 35.5742 10.568 35.2436 11.368C35.2436 11.4747 35.2436 11.5814 35.2436 11.688C35.2436 12.2 35.2436 12.7334 35.2436 13.288C35.2542 13.832 35.2649 14.3547 35.2756 14.856C35.2969 15.3467 35.3129 15.7734 35.3236 16.136L32.7476 16.152Z" fill="white"/>
<path d="M52.9752 16.248C51.9512 16.248 51.1032 16.0827 50.4312 15.752C49.7592 15.432 49.2205 14.9894 48.8152 14.424C48.4205 13.848 48.1219 13.1867 47.9192 12.44C47.7272 11.6934 47.5992 10.8934 47.5352 10.04C47.4819 9.18669 47.4552 8.32269 47.4552 7.44802C47.4552 6.45602 47.4872 5.49069 47.5512 4.55202C47.6152 3.60269 47.6845 2.80802 47.7592 2.16802L50.7032 2.34402C50.5965 3.12269 50.5112 3.82136 50.4472 4.44002C50.3939 5.04802 50.3565 5.62402 50.3352 6.16802C50.3139 6.71202 50.3032 7.27202 50.3032 7.84802C50.3032 8.29602 50.3085 8.78136 50.3192 9.30402C50.3405 9.81602 50.3885 10.328 50.4632 10.84C50.5485 11.3414 50.6765 11.8 50.8472 12.216C51.0285 12.6214 51.2792 12.952 51.5992 13.208C51.9299 13.4534 52.3512 13.576 52.8632 13.576C53.4179 13.576 53.8659 13.4534 54.2072 13.208C54.5592 12.952 54.8312 12.616 55.0232 12.2C55.2152 11.7734 55.3539 11.304 55.4392 10.792C55.5245 10.2694 55.5725 9.74136 55.5832 9.20802C55.6045 8.66402 55.6152 8.15202 55.6152 7.67202C55.6152 6.76536 55.5885 5.88536 55.5352 5.03202C55.4819 4.17869 55.4125 3.27202 55.3272 2.31202L58.2712 2.08802C58.3565 3.11202 58.4205 4.05069 58.4632 4.90402C58.5059 5.74669 58.5272 6.52536 58.5272 7.24002C58.5272 8.21069 58.4899 9.14402 58.4152 10.04C58.3512 10.936 58.2125 11.7627 57.9992 12.52C57.7859 13.2667 57.4765 13.9227 57.0712 14.488C56.6659 15.0427 56.1272 15.4747 55.4552 15.784C54.7939 16.0934 53.9672 16.248 52.9752 16.248Z" fill="white"/>
<path d="M60.5132 19.544C60.4385 18.6907 60.3852 17.832 60.3532 16.968C60.3212 16.104 60.3052 15.1067 60.3052 13.976C60.3052 12.6 60.3265 11.2294 60.3692 9.86402C60.4119 8.49869 60.4759 7.25069 60.5612 6.12002L63.3132 6.20002C63.2812 6.44536 63.2545 6.70669 63.2332 6.98402C63.6172 6.72802 64.0279 6.54136 64.4652 6.42402C64.9132 6.30669 65.3665 6.24802 65.8252 6.24802C66.4119 6.24802 66.9825 6.34402 67.5372 6.53602C68.0919 6.71736 68.5932 7.01069 69.0412 7.41602C69.4892 7.81069 69.8412 8.32269 70.0972 8.95202C70.3639 9.58136 70.4972 10.3387 70.4972 11.224C70.4972 12.0987 70.3639 12.8614 70.0972 13.512C69.8305 14.1627 69.4732 14.696 69.0252 15.112C68.5772 15.5387 68.0759 15.8534 67.5212 16.056C66.9665 16.2694 66.3959 16.376 65.8092 16.376C64.7319 16.376 63.7825 16.056 62.9612 15.416C62.9825 16.0987 63.0145 16.7547 63.0572 17.384C63.0999 18.024 63.1532 18.6747 63.2172 19.336L60.5132 19.544ZM65.3932 8.90402C64.3372 8.90402 63.5425 9.42136 63.0092 10.456C62.9772 11.096 62.9559 11.7467 62.9452 12.408C63.2012 12.7494 63.5319 13.048 63.9372 13.304C64.3425 13.5494 64.8599 13.672 65.4892 13.672C66.9932 13.672 67.7452 12.8134 67.7452 11.096C67.7452 10.6374 67.6599 10.264 67.4892 9.97602C67.3185 9.68802 67.1052 9.46936 66.8492 9.32002C66.5932 9.16002 66.3319 9.05336 66.0652 9.00002C65.7985 8.93602 65.5745 8.90402 65.3932 8.90402Z" fill="white"/>
<path d="M11.9336 16.28C11.0376 16.28 10.2056 16.1467 9.43757 15.88C8.66957 15.6134 7.97624 15.2614 7.35757 14.824C6.74957 14.376 6.21624 13.896 5.75757 13.384L7.35757 10.84C7.49624 11.2027 7.72557 11.5494 8.04557 11.88C8.37624 12.2107 8.76024 12.504 9.19757 12.76C9.6349 13.016 10.0936 13.2187 10.5736 13.368C11.0642 13.5174 11.5442 13.592 12.0136 13.592C12.7176 13.592 13.2776 13.48 13.6936 13.256C14.1096 13.0214 14.3176 12.712 14.3176 12.328C14.3176 12.0294 14.2216 11.784 14.0296 11.592C13.8482 11.3894 13.6349 11.2294 13.3896 11.112C13.1549 10.984 12.9522 10.872 12.7816 10.776C12.6536 10.712 12.4189 10.616 12.0776 10.488C11.7469 10.3494 11.3736 10.2 10.9576 10.04C10.5416 9.88002 10.1469 9.73069 9.77357 9.59202C9.40023 9.44269 9.1069 9.32002 8.89357 9.22402C7.30424 8.50936 6.50957 7.40536 6.50957 5.91202C6.50957 5.43202 6.60024 4.96269 6.78157 4.50402C6.97357 4.03469 7.26157 3.60802 7.64557 3.22402C8.02957 2.84002 8.52024 2.53602 9.11757 2.31202C9.7149 2.08802 10.4296 1.97602 11.2616 1.97602C12.1682 1.97602 12.9736 2.07736 13.6776 2.28002C14.3816 2.47202 15.0002 2.71736 15.5336 3.01602C16.0776 3.31469 16.5416 3.62936 16.9256 3.96002L15.4536 6.42402C14.2696 5.25069 12.9309 4.66402 11.4376 4.66402C10.8082 4.66402 10.3282 4.73336 9.99757 4.87202C9.67757 5.00002 9.4589 5.14936 9.34157 5.32002C9.2349 5.48002 9.18157 5.61336 9.18157 5.72002C9.18157 5.90136 9.24557 6.08269 9.37357 6.26402C9.51223 6.44536 9.81624 6.63736 10.2856 6.84002C10.4776 6.92536 10.7336 7.03202 11.0536 7.16002C11.3842 7.27736 11.7469 7.41069 12.1416 7.56002C12.5469 7.70936 12.9416 7.86936 13.3256 8.04002C13.7202 8.20002 14.0776 8.36536 14.3976 8.53602C14.7816 8.74936 15.1762 9.01069 15.5816 9.32002C15.9869 9.62936 16.3282 10.0134 16.6056 10.472C16.8936 10.92 17.0376 11.4694 17.0376 12.12C17.0376 12.5147 16.9629 12.952 16.8136 13.432C16.6642 13.9014 16.4029 14.3547 16.0296 14.792C15.6562 15.2294 15.1389 15.5867 14.4776 15.864C13.8162 16.1414 12.9682 16.28 11.9336 16.28Z" stroke="black" stroke-width="2" mask="url(#path-1-outside-1_63_244)"/>
<path d="M18.4466 4.66402C18.4466 4.56802 18.4412 4.47202 18.4306 4.37602C18.4306 4.26936 18.4306 4.15202 18.4306 4.02402C18.4306 3.68269 18.4412 3.32002 18.4626 2.93602C18.4839 2.55202 18.5052 2.22669 18.5266 1.96002L21.3746 2.00802C21.3426 2.37069 21.3052 2.78136 21.2626 3.24002C21.2306 3.69869 21.2092 4.17336 21.1986 4.66402H18.4466ZM18.3826 16.12C18.3506 15.4587 18.3292 14.7547 18.3186 14.008C18.3079 13.2507 18.3026 12.4934 18.3026 11.736C18.3026 10.744 18.3132 9.77869 18.3346 8.84002C18.3559 7.90136 18.3826 7.04802 18.4146 6.28002L21.1666 6.26402C21.1239 6.75469 21.0972 7.36269 21.0866 8.08802C21.0759 8.80269 21.0706 9.55469 21.0706 10.344C21.0706 11.1227 21.0759 11.8907 21.0866 12.648C21.0972 13.4054 21.1079 14.0934 21.1186 14.712C21.1399 15.32 21.1559 15.7894 21.1666 16.12H18.3826Z" stroke="black" stroke-width="2" mask="url(#path-1-outside-1_63_244)"/>
<path d="M26.4253 15.08C25.7533 15.08 25.1827 14.9787 24.7133 14.776C24.244 14.5734 23.8547 14.312 23.5453 13.992C23.2467 13.6614 23.012 13.3094 22.8413 12.936C22.6707 12.552 22.5533 12.184 22.4893 11.832C22.4253 11.4694 22.3933 11.1547 22.3933 10.888C22.3933 10.376 22.4627 9.84802 22.6013 9.30402C22.7507 8.76002 22.996 8.25336 23.3373 7.78402C23.6893 7.31469 24.164 6.93602 24.7613 6.64802C25.3693 6.36002 26.132 6.21602 27.0493 6.21602C27.3267 6.21602 27.5827 6.23736 27.8173 6.28002C28.052 6.32269 28.2707 6.38136 28.4733 6.45602V5.92802H31.2413C31.2307 6.56802 31.22 7.29336 31.2093 8.10402C31.1987 8.90402 31.1933 9.81069 31.1933 10.824C31.1933 11.3467 31.1933 11.896 31.1933 12.472C31.204 13.0374 31.2093 13.656 31.2093 14.328C31.2093 15.2454 31.0867 15.9974 30.8413 16.584C30.596 17.1707 30.2813 17.624 29.8973 17.944C29.5133 18.264 29.1133 18.4934 28.6973 18.632C28.292 18.7814 27.9133 18.8667 27.5613 18.888C27.22 18.92 26.964 18.936 26.7933 18.936C26.3773 18.936 25.9187 18.888 25.4173 18.792C24.916 18.7067 24.4147 18.5627 23.9133 18.36C23.412 18.168 22.9533 17.9174 22.5373 17.608L23.7053 15.176C23.972 15.4 24.2387 15.6027 24.5053 15.784C24.772 15.976 25.0813 16.1254 25.4333 16.232C25.7853 16.3494 26.2227 16.408 26.7453 16.408C27.2787 16.408 27.6733 16.312 27.9293 16.12C28.1853 15.9387 28.3507 15.6934 28.4253 15.384C28.5107 15.0854 28.5587 14.7547 28.5693 14.392C28.2067 14.6587 27.8387 14.84 27.4653 14.936C27.092 15.032 26.7453 15.08 26.4253 15.08ZM24.7933 10.664C24.7933 11.272 24.9587 11.752 25.2893 12.104C25.6307 12.456 26.0947 12.632 26.6813 12.632C27.5027 12.632 28.116 12.1574 28.5213 11.208C28.5213 10.8667 28.516 10.52 28.5053 10.168C28.5053 9.80536 28.5 9.45336 28.4893 9.11202C28.0627 8.83469 27.572 8.69602 27.0173 8.69602C26.3347 8.69602 25.7907 8.87736 25.3853 9.24002C24.9907 9.59202 24.7933 10.0667 24.7933 10.664Z" stroke="black" stroke-width="2" mask="url(#path-1-outside-1_63_244)"/>
<path d="M32.7476 16.152C32.7156 15.2134 32.6889 14.344 32.6676 13.544C32.6569 12.744 32.6516 11.9547 32.6516 11.176C32.6516 10.3974 32.6569 9.61869 32.6676 8.84002C32.6889 8.05069 32.7209 7.20802 32.7636 6.31202H35.4676C35.4249 6.79202 35.3876 7.27736 35.3556 7.76802C35.7182 7.30936 36.1502 6.93069 36.6516 6.63202C37.1529 6.32269 37.7449 6.16802 38.4276 6.16802C39.0996 6.16802 39.6489 6.28002 40.0756 6.50402C40.5129 6.72802 40.8542 7.03736 41.0996 7.43202C41.3556 7.82669 41.5369 8.28002 41.6436 8.79202C41.7609 9.29336 41.8356 9.83736 41.8676 10.424C41.8996 11 41.9156 11.5814 41.9156 12.168C41.9156 12.808 41.9049 13.4214 41.8836 14.008C41.8622 14.5947 41.8409 15.0854 41.8196 15.48C41.7982 15.8747 41.7822 16.1094 41.7716 16.184H39.0836C39.1049 15.7467 39.1262 15.2827 39.1476 14.792C39.1689 14.2907 39.1902 13.8 39.2116 13.32C39.2329 12.8294 39.2436 12.3867 39.2436 11.992C39.2436 9.72002 38.8756 8.58402 38.1396 8.58402C37.5316 8.58402 36.9769 8.85069 36.4756 9.38402C35.9849 9.90669 35.5742 10.568 35.2436 11.368C35.2436 11.4747 35.2436 11.5814 35.2436 11.688C35.2436 12.2 35.2436 12.7334 35.2436 13.288C35.2542 13.832 35.2649 14.3547 35.2756 14.856C35.2969 15.3467 35.3129 15.7734 35.3236 16.136L32.7476 16.152Z" stroke="black" stroke-width="2" mask="url(#path-1-outside-1_63_244)"/>
<path d="M52.9752 16.248C51.9512 16.248 51.1032 16.0827 50.4312 15.752C49.7592 15.432 49.2205 14.9894 48.8152 14.424C48.4205 13.848 48.1219 13.1867 47.9192 12.44C47.7272 11.6934 47.5992 10.8934 47.5352 10.04C47.4819 9.18669 47.4552 8.32269 47.4552 7.44802C47.4552 6.45602 47.4872 5.49069 47.5512 4.55202C47.6152 3.60269 47.6845 2.80802 47.7592 2.16802L50.7032 2.34402C50.5965 3.12269 50.5112 3.82136 50.4472 4.44002C50.3939 5.04802 50.3565 5.62402 50.3352 6.16802C50.3139 6.71202 50.3032 7.27202 50.3032 7.84802C50.3032 8.29602 50.3085 8.78136 50.3192 9.30402C50.3405 9.81602 50.3885 10.328 50.4632 10.84C50.5485 11.3414 50.6765 11.8 50.8472 12.216C51.0285 12.6214 51.2792 12.952 51.5992 13.208C51.9299 13.4534 52.3512 13.576 52.8632 13.576C53.4179 13.576 53.8659 13.4534 54.2072 13.208C54.5592 12.952 54.8312 12.616 55.0232 12.2C55.2152 11.7734 55.3539 11.304 55.4392 10.792C55.5245 10.2694 55.5725 9.74136 55.5832 9.20802C55.6045 8.66402 55.6152 8.15202 55.6152 7.67202C55.6152 6.76536 55.5885 5.88536 55.5352 5.03202C55.4819 4.17869 55.4125 3.27202 55.3272 2.31202L58.2712 2.08802C58.3565 3.11202 58.4205 4.05069 58.4632 4.90402C58.5059 5.74669 58.5272 6.52536 58.5272 7.24002C58.5272 8.21069 58.4899 9.14402 58.4152 10.04C58.3512 10.936 58.2125 11.7627 57.9992 12.52C57.7859 13.2667 57.4765 13.9227 57.0712 14.488C56.6659 15.0427 56.1272 15.4747 55.4552 15.784C54.7939 16.0934 53.9672 16.248 52.9752 16.248Z" stroke="black" stroke-width="2" mask="url(#path-1-outside-1_63_244)"/>
<path d="M60.5132 19.544C60.4385 18.6907 60.3852 17.832 60.3532 16.968C60.3212 16.104 60.3052 15.1067 60.3052 13.976C60.3052 12.6 60.3265 11.2294 60.3692 9.86402C60.4119 8.49869 60.4759 7.25069 60.5612 6.12002L63.3132 6.20002C63.2812 6.44536 63.2545 6.70669 63.2332 6.98402C63.6172 6.72802 64.0279 6.54136 64.4652 6.42402C64.9132 6.30669 65.3665 6.24802 65.8252 6.24802C66.4119 6.24802 66.9825 6.34402 67.5372 6.53602C68.0919 6.71736 68.5932 7.01069 69.0412 7.41602C69.4892 7.81069 69.8412 8.32269 70.0972 8.95202C70.3639 9.58136 70.4972 10.3387 70.4972 11.224C70.4972 12.0987 70.3639 12.8614 70.0972 13.512C69.8305 14.1627 69.4732 14.696 69.0252 15.112C68.5772 15.5387 68.0759 15.8534 67.5212 16.056C66.9665 16.2694 66.3959 16.376 65.8092 16.376C64.7319 16.376 63.7825 16.056 62.9612 15.416C62.9825 16.0987 63.0145 16.7547 63.0572 17.384C63.0999 18.024 63.1532 18.6747 63.2172 19.336L60.5132 19.544ZM65.3932 8.90402C64.3372 8.90402 63.5425 9.42136 63.0092 10.456C62.9772 11.096 62.9559 11.7467 62.9452 12.408C63.2012 12.7494 63.5319 13.048 63.9372 13.304C64.3425 13.5494 64.8599 13.672 65.4892 13.672C66.9932 13.672 67.7452 12.8134 67.7452 11.096C67.7452 10.6374 67.6599 10.264 67.4892 9.97602C67.3185 9.68802 67.1052 9.46936 66.8492 9.32002C66.5932 9.16002 66.3319 9.05336 66.0652 9.00002C65.7985 8.93602 65.5745 8.90402 65.3932 8.90402Z" stroke="black" stroke-width="2" mask="url(#path-1-outside-1_63_244)"/>
</g>
<defs>
<filter id="filter0_d_63_244" x="0.509705" y="0.944336" width="74.9875" height="27.6726" filterUnits="userSpaceOnUse" color-interpolation-filters="sRGB">
<feFlood flood-opacity="0" result="BackgroundImageFix"/>
<feColorMatrix in="SourceAlpha" type="matrix" values="0 0 0 0 0 0 0 0 0 0 0 0 0 0 0 0 0 0 127 0" result="hardAlpha"/>
<feOffset dy="4"/>
<feGaussianBlur stdDeviation="2"/>
<feComposite in2="hardAlpha" operator="out"/>
<feColorMatrix type="matrix" values="0 0 0 0 0 0 0 0 0 0 0 0 0 0 0 0 0 0 0.25 0"/>
<feBlend mode="normal" in2="BackgroundImageFix" result="effect1_dropShadow_63_244"/>
<feBlend mode="normal" in="SourceGraphic" in2="effect1_dropShadow_63_244" result="shape"/>
</filter>
</defs>
</svg>
